<svg width="119" height="40" viewBox="0 0 119 40" fill="none" xmlns="http://www.w3.org/2000/svg">
<path d="M50.712 15.624V21.504C50.712 22.32 50.476 22.956 50.004 23.412C49.532 23.86 48.9 24.084 48.108 24.084C47.308 24.084 46.66 23.852 46.164 23.388C45.676 22.924 45.432 22.276 45.432 21.444H47.112C47.12 21.804 47.204 22.084 47.364 22.284C47.532 22.484 47.772 22.584 48.084 22.584C48.388 22.584 48.62 22.488 48.78 22.296C48.94 22.104 49.02 21.84 49.02 21.504V15.624H50.712ZM58.9478 17.352V24H57.2558V23.16C57.0398 23.448 56.7558 23.676 56.4038 23.844C56.0598 24.004 55.6838 24.084 55.2758 24.084C54.7558 24.084 54.2958 23.976 53.8958 23.76C53.4958 23.536 53.1798 23.212 52.9478 22.788C52.7238 22.356 52.6118 21.844 52.6118 21.252V17.352H54.2918V21.012C54.2918 21.54 54.4238 21.948 54.6878 22.236C54.9518 22.516 55.3118 22.656 55.7678 22.656C56.2318 22.656 56.5958 22.516 56.8598 22.236C57.1238 21.948 57.2558 21.54 57.2558 21.012V17.352H58.9478ZM60.1733 20.652C60.1733 19.98 60.3053 19.384 60.5693 18.864C60.8413 18.344 61.2053 17.944 61.6613 17.664C62.1253 17.384 62.6413 17.244 63.2093 17.244C63.7053 17.244 64.1373 17.344 64.5053 17.544C64.8813 17.744 65.1813 17.996 65.4053 18.3V17.352H67.0973V24H65.4053V23.028C65.1893 23.34 64.8893 23.6 64.5053 23.808C64.1293 24.008 63.6933 24.108 63.1973 24.108C62.6373 24.108 62.1253 23.964 61.6613 23.676C61.2053 23.388 60.8413 22.984 60.5693 22.464C60.3053 21.936 60.1733 21.332 60.1733 20.652ZM65.4053 20.676C65.4053 20.268 65.3253 19.92 65.1653 19.632C65.0053 19.336 64.7893 19.112 64.5173 18.96C64.2453 18.8 63.9533 18.72 63.6413 18.72C63.3293 18.72 63.0413 18.796 62.7773 18.948C62.5133 19.1 62.2973 19.324 62.1293 19.62C61.9693 19.908 61.8893 20.252 61.8893 20.652C61.8893 21.052 61.9693 21.404 62.1293 21.708C62.2973 22.004 62.5133 22.232 62.7773 22.392C63.0493 22.552 63.3373 22.632 63.6413 22.632C63.9533 22.632 64.2453 22.556 64.5173 22.404C64.7893 22.244 65.0053 22.02 65.1653 21.732C65.3253 21.436 65.4053 21.084 65.4053 20.676ZM72.4222 17.256C73.2142 17.256 73.8542 17.508 74.3422 18.012C74.8302 18.508 75.0742 19.204 75.0742 20.1V24H73.3942V20.328C73.3942 19.8 73.2622 19.396 72.9982 19.116C72.7342 18.828 72.3742 18.684 71.9182 18.684C71.4542 18.684 71.0862 18.828 70.8142 19.116C70.5502 19.396 70.4182 19.8 70.4182 20.328V24H68.7382V17.352H70.4182V18.18C70.6422 17.892 70.9262 17.668 71.2702 17.508C71.6222 17.34 72.0062 17.256 72.4222 17.256ZM83.4191 24.084C82.6351 24.084 81.9151 23.9 81.2591 23.532C80.6031 23.164 80.0831 22.656 79.6991 22.008C79.3151 21.352 79.1231 20.612 79.1231 19.788C79.1231 18.972 79.3151 18.24 79.6991 17.592C80.0831 16.936 80.6031 16.424 81.2591 16.056C81.9151 15.688 82.6351 15.504 83.4191 15.504C84.2111 15.504 84.9311 15.688 85.5791 16.056C86.2351 16.424 86.7511 16.936 87.1271 17.592C87.5111 18.24 87.7031 18.972 87.7031 19.788C87.7031 20.612 87.5111 21.352 87.1271 22.008C86.7511 22.656 86.2351 23.164 85.5791 23.532C84.9231 23.9 84.2031 24.084 83.4191 24.084ZM83.4191 22.584C83.9231 22.584 84.3671 22.472 84.7511 22.248C85.1351 22.016 85.4351 21.688 85.6511 21.264C85.8671 20.84 85.9751 20.348 85.9751 19.788C85.9751 19.228 85.8671 18.74 85.6511 18.324C85.4351 17.9 85.1351 17.576 84.7511 17.352C84.3671 17.128 83.9231 17.016 83.4191 17.016C82.9151 17.016 82.4671 17.128 82.0751 17.352C81.6911 17.576 81.3911 17.9 81.1751 18.324C80.9591 18.74 80.8511 19.228 80.8511 19.788C80.8511 20.348 80.9591 20.84 81.1751 21.264C81.3911 21.688 81.6911 22.016 82.0751 22.248C82.4671 22.472 82.9151 22.584 83.4191 22.584ZM91.497 24.108C90.953 24.108 90.465 24.012 90.033 23.82C89.601 23.62 89.257 23.352 89.001 23.016C88.753 22.68 88.617 22.308 88.593 21.9H90.285C90.317 22.156 90.441 22.368 90.657 22.536C90.881 22.704 91.157 22.788 91.485 22.788C91.805 22.788 92.053 22.724 92.229 22.596C92.413 22.468 92.505 22.304 92.505 22.104C92.505 21.888 92.393 21.728 92.169 21.624C91.953 21.512 91.605 21.392 91.125 21.264C90.629 21.144 90.221 21.02 89.901 20.892C89.589 20.764 89.317 20.568 89.085 20.304C88.861 20.04 88.749 19.684 88.749 19.236C88.749 18.868 88.853 18.532 89.061 18.228C89.277 17.924 89.581 17.684 89.973 17.508C90.373 17.332 90.841 17.244 91.377 17.244C92.169 17.244 92.801 17.444 93.273 17.844C93.745 18.236 94.005 18.768 94.053 19.44H92.445C92.421 19.176 92.309 18.968 92.109 18.816C91.917 18.656 91.657 18.576 91.329 18.576C91.025 18.576 90.789 18.632 90.621 18.744C90.461 18.856 90.381 19.012 90.381 19.212C90.381 19.436 90.493 19.608 90.717 19.728C90.941 19.84 91.289 19.956 91.761 20.076C92.241 20.196 92.637 20.32 92.949 20.448C93.261 20.576 93.529 20.776 93.753 21.048C93.985 21.312 94.105 21.664 94.113 22.104C94.113 22.488 94.005 22.832 93.789 23.136C93.581 23.44 93.277 23.68 92.877 23.856C92.485 24.024 92.025 24.108 91.497 24.108ZM98.4441 24.108C97.8041 24.108 97.2281 23.968 96.7161 23.688C96.2041 23.4 95.8001 22.996 95.5041 22.476C95.2161 21.956 95.0721 21.356 95.0721 20.676C95.0721 19.996 95.2201 19.396 95.5161 18.876C95.8201 18.356 96.2321 17.956 96.7521 17.676C97.2721 17.388 97.8521 17.244 98.4921 17.244C99.1321 17.244 99.7121 17.388 100.232 17.676C100.752 17.956 101.16 18.356 101.456 18.876C101.76 19.396 101.912 19.996 101.912 20.676C101.912 21.356 101.756 21.956 101.444 22.476C101.14 22.996 100.724 23.4 100.196 23.688C99.6761 23.968 99.0921 24.108 98.4441 24.108ZM98.4441 22.644C98.7481 22.644 99.0321 22.572 99.2961 22.428C99.5681 22.276 99.7841 22.052 99.9441 21.756C100.104 21.46 100.184 21.1 100.184 20.676C100.184 20.044 100.016 19.56 99.6801 19.224C99.3521 18.88 98.9481 18.708 98.4681 18.708C97.9881 18.708 97.5841 18.88 97.2561 19.224C96.9361 19.56 96.7761 20.044 96.7761 20.676C96.7761 21.308 96.9321 21.796 97.2441 22.14C97.5641 22.476 97.9641 22.644 98.4441 22.644ZM104.824 18.384C105.04 18.032 105.32 17.756 105.664 17.556C106.016 17.356 106.416 17.256 106.864 17.256V19.02H106.42C105.892 19.02 105.492 19.144 105.22 19.392C104.956 19.64 104.824 20.072 104.824 20.688V24H103.144V17.352H104.824V18.384ZM108.848 16.56C108.552 16.56 108.304 16.468 108.104 16.284C107.912 16.092 107.816 15.856 107.816 15.576C107.816 15.296 107.912 15.064 108.104 14.88C108.304 14.688 108.552 14.592 108.848 14.592C109.144 14.592 109.388 14.688 109.58 14.88C109.78 15.064 109.88 15.296 109.88 15.576C109.88 15.856 109.78 16.092 109.58 16.284C109.388 16.468 109.144 16.56 108.848 16.56ZM109.676 17.352V24H107.996V17.352H109.676ZM114.288 24.108C113.648 24.108 113.072 23.968 112.56 23.688C112.048 23.4 111.644 22.996 111.348 22.476C111.06 21.956 110.916 21.356 110.916 20.676C110.916 19.996 111.064 19.396 111.36 18.876C111.664 18.356 112.076 17.956 112.596 17.676C113.116 17.388 113.696 17.244 114.336 17.244C114.976 17.244 115.556 17.388 116.076 17.676C116.596 17.956 117.004 18.356 117.3 18.876C117.604 19.396 117.756 19.996 117.756 20.676C117.756 21.356 117.6 21.956 117.288 22.476C116.984 22.996 116.568 23.4 116.04 23.688C115.52 23.968 114.936 24.108 114.288 24.108ZM114.288 22.644C114.592 22.644 114.876 22.572 115.14 22.428C115.412 22.276 115.628 22.052 115.788 21.756C115.948 21.46 116.028 21.1 116.028 20.676C116.028 20.044 115.86 19.56 115.524 19.224C115.196 18.88 114.792 18.708 114.312 18.708C113.832 18.708 113.428 18.88 113.1 19.224C112.78 19.56 112.62 20.044 112.62 20.676C112.62 21.308 112.776 21.796 113.088 22.14C113.408 22.476 113.808 22.644 114.288 22.644Z" fill="black"/>
<path d="M20.9141 36.8359L21.7422 38.0703L22.1562 37.1094L22.5703 37.6562V40C24.2188 39.3828 24.2188 34.7734 24.5625 32.4062C24.9219 29.9141 24.4922 25.1562 30.9219 20.7578C30.2266 18.9141 29.9844 16.8984 30.7188 14.5C32.8906 14.7656 34.9219 15.3281 35.6562 18.7266L33.2812 19.3828C34.1562 21.1797 34.6094 23.0391 34.3125 25.0156L32.1875 24.4688L31.7031 27.0781L30.2578 26.5312L29.5703 29.1406L28.0547 28.5938L30.1172 30.2422L30.8047 28.0391L32.7344 28.4531L33.2812 25.6719L35.3438 26.8047C35.3672 25.2422 35.8906 22.2656 34.6562 20.2031L36.7188 20.6172C37.0312 18.8906 36.5312 17.5547 36.1016 16.1875L37.8516 16.9453C37.8203 14.9844 35.5156 12.5078 33.0391 12.375C31.4609 12.2891 28.6094 10.4062 28.8125 8.32031C28.9688 6.76562 30.1797 4.99219 32.1797 4.4375C28.7422 7.28906 31.4219 9.69531 32.5938 10.1797C32.9375 9.28906 33.9609 4.78125 32.5938 0.0078125C29.4375 1.79688 25.5859 5.09375 25.3125 11.5547L20.7812 14.5781L20.5078 21.8672L28.8906 17.1875L29.4375 17.7344L28.0625 18.0078L24.625 21.0312L23.3906 20.6172L21.1953 24.4688L20.9219 33.8125L22.5703 35.0469L20.0234 36.2812L17.4766 35.0469L19.125 33.8125L18.8516 24.4688L16.6484 20.6172L15.4141 21.0312L11.9766 18.0078L10.6016 17.7344L11.1484 17.1875L19.5312 21.8594L19.2578 14.5703L14.7188 11.5469C14.4531 5.08594 10.6094 1.78906 7.44531 0C6.07813 4.77344 7.10156 9.28125 7.44531 10.1719C8.61719 9.6875 11.2969 7.28125 7.85938 4.42969C9.86719 4.98438 11.0781 6.75781 11.2266 8.3125C11.4297 10.3984 8.57812 12.2812 7 12.3672C4.52344 12.5 2.21875 14.9766 2.1875 16.9375L3.9375 16.1797C3.50781 17.5469 3.00781 18.8906 3.32031 20.6094L5.38281 20.1953C4.14844 22.2578 4.67187 25.2266 4.69531 26.7969L6.75781 25.6641L7.30469 28.4453L9.22656 28.0312L9.91406 30.2344L11.9844 28.5938L10.4688 29.1406L9.78125 26.5312L8.33594 27.0781L7.85156 24.4688L5.71875 25.0156C5.42187 23.0313 5.875 21.1797 6.75 19.3828L4.375 18.7266C5.10938 15.3281 7.14844 14.7578 9.32031 14.5C10.0547 16.8906 9.80469 18.9141 9.11719 20.7578C15.5469 25.1562 15.1172 29.9141 15.4766 32.4062C15.8203 34.7812 15.8281 39.3828 17.4688 40V37.6719L17.8828 37.125L18.2969 38.0859L19.125 36.8516L20.0156 38.5L20.9062 36.8516L20.9141 36.8359ZM27.1016 29.4141L25.8672 28.5938C26.4531 28.25 26.9453 27.9375 27.3828 27.6328C27.3359 28.1953 27.3594 28.7109 27.1094 29.4141H27.1016ZM29.3047 25.5625C29.2734 26.4141 29.2344 27.2578 29.1641 28.0391C28.5469 27.8906 27.9453 27.7422 27.5156 27.4922C28.1562 26.875 28.7344 26.2188 29.3047 25.5625ZM31.2266 25.9766C31.2266 24.9297 31.0625 24.0859 30.8125 23.3672C30.3813 24.1111 29.8983 24.8238 29.3672 25.5L31.2266 25.9766ZM31.5 19.6562C33.0156 20.6562 33.6719 22.2891 33.8359 24.0547C32.875 23.7031 31.9141 23.3281 30.9453 23.2266C31.3438 22.2891 31.4688 21.0312 31.4922 19.6562H31.5ZM31.3594 16.0859C31.4219 17.2031 31.5 18.3359 31.5 19.3828C33 18.75 33.8281 18.625 34.9375 18.2812C34.1094 16.7969 32.8125 16.2891 31.3594 16.0781V16.0859ZM12.9453 29.4141L14.1797 28.5938C13.5938 28.25 13.1016 27.9375 12.6641 27.6328C12.7109 28.2031 12.6875 28.7188 12.9375 29.4219L12.9453 29.4141ZM10.7422 25.5625C10.7734 26.4141 10.8125 27.2578 10.8828 28.0391C11.5 27.8906 12.1016 27.7422 12.5312 27.4922C11.8906 26.875 11.3125 26.2188 10.7422 25.5625ZM8.82031 25.9766C8.82031 24.9297 8.97656 24.0859 9.23438 23.3672C9.66561 24.1111 10.1486 24.8238 10.6797 25.5L8.82031 25.9766ZM8.54688 19.6562C7.03125 20.6562 6.375 22.2891 6.21094 24.0547C7.17188 23.7031 8.13281 23.3281 9.10156 23.2266C8.71094 22.2891 8.57812 21.0312 8.55469 19.6562H8.54688ZM8.6875 16.0859C8.625 17.2031 8.54688 18.3359 8.54688 19.3828C7.04688 18.75 6.21875 18.625 5.10938 18.2812C5.9375 16.7969 7.23437 16.2891 8.6875 16.0781V16.0859Z" fill="black"/>
</svg>
